<?xml version="1.0" encoding="UTF-8" standalone="no"?>
<!DOCTYPE svg PUBLIC "-//W3C//DTD SVG 1.1//EN" "http://www.w3.org/Graphics/SVG/1.1/DTD/svg11.dtd">
<svg width="100%" height="100%" viewBox="0 0 200 200" version="1.1" xmlns="http://www.w3.org/2000/svg" xmlns:xlink="http://www.w3.org/1999/xlink" xml:space="preserve" style="fill-rule:evenodd;clip-rule:evenodd;stroke-linejoin:round;stroke-miterlimit:1.41421;">
    <g id="Ebene-2" transform="matrix(1,0,0,1,2.03849,-0.143574)">
        <path d="M54.22,56.311L74.464,38.468C103.204,69.583 128.545,106.594 118.298,125.706C104.142,152.105 58.75,136.736 17.303,118.93L28.014,93.748C54.794,104.992 84.367,115.208 89.044,109.452C94.226,103.076 70.509,78.759 54.22,56.311" style="fill:rgb(237,70,47);fill-rule:nonzero;"/>
        <path d="M159.576,138.694C135.076,131.484 100.539,118.527 100.539,111.326C100.539,103.246 152.408,90.999 182.696,88.264L180.093,69.092C128.214,75.403 80.303,87.182 80.303,111.326C80.303,130.991 118.663,149.245 159.576,159.122L172.225,159.48L172.249,111.942L159.576,111.942L159.576,138.694Z" style="fill:rgb(64,64,64);fill-rule:nonzero;"/>
    </g>
</svg>
